<svg xmlns="http://www.w3.org/2000/svg" viewBox="0 0 24 24" role="img" aria-label="Amazon"><title>Amazon</title><path fill="#FF9900" d="M15.93 17.09c-.18.16-.41.17-.61.06-.86-.71-1.01-1.04-1.49-1.72-1.42 1.45-2.43 1.89-4.28 1.89-2.18 0-3.89-1.35-3.89-4.04 0-2.1 1.14-3.53 2.76-4.23 1.41-.62 3.38-.73 4.88-.9v-.33c0-.62.05-1.35-.32-1.89-.32-.48-.93-.68-1.47-.68-1 0-1.89.51-2.11 1.57-.04.24-.22.47-.46.47l-2.57-.28c-.22-.05-.46-.22-.39-.55C6.56 3.43 9.18 2.5 11.53 2.5c1.2 0 2.77.32 3.72 1.23 1.2 1.12 1.08 2.62 1.08 4.25v3.85c0 1.16.48 1.67.93 2.3.16.23.2.5-.01.67-.5.42-1.39 1.19-1.88 1.63l.05.02zm-3.03-6.04c0 .82.02 1.49-.33 2.21-.29.58-.75.93-1.27.93-.71 0-1.12-.54-1.12-1.33 0-1.56 1.4-1.85 2.72-1.85v.04zm5.84 8.58c.21-.28.5-.34.78-.32.33.02.63.06.93.14.5.12.93.27 1.17.54.44.48.1 1.37-.06 1.71-.07.15-.17.18-.28.1-.93-.73-.9-1.69-.33-2.11-.08-.06-.22-.05-.31.05-.37.38-.36.9-.04 1.28.03.03.04.05-.01.07-.39.18-.87.38-1.31.48-.77.17-.27-.97-.55-1.07-.13-.05-.14-.24.01-.86zM22.4 17.3c-3.28 2.42-8.04 3.71-12.14 3.71-5.75 0-10.92-2.12-14.84-5.66-.31-.28-.03-.66.33-.45 4.23 2.46 9.47 3.95 14.87 3.95 3.64 0 7.64-.76 11.33-2.32.56-.24 1.02.36.45.77z"/></svg>
